<svg width="51" height="50" viewBox="0 0 51 50" fill="none" xmlns="http://www.w3.org/2000/svg">
<g clip-path="url(#clip0_66_143)">
<path d="M42.3097 1.13269H9.60708C5.11818 1.13269 1.47922 4.77165 1.47922 9.26056V40.7392C1.47922 45.2281 5.11818 48.8671 9.60708 48.8671H42.3097C46.7986 48.8671 50.4376 45.2281 50.4376 40.7392V9.26056C50.4376 4.77165 46.7986 1.13269 42.3097 1.13269Z" fill="#330000"/>
<path d="M25.2036 29.7791H17.6169L16.0733 34.5742C16.0299 34.7546 15.8645 34.8786 15.6792 34.8698H11.8365C11.6174 34.8698 11.5408 34.7494 11.6067 34.5085L18.1752 15.591C18.2409 15.3939 18.3066 15.1695 18.3723 14.9177C18.4582 14.4795 18.5022 14.0341 18.5037 13.5876C18.4946 13.5243 18.5159 13.4604 18.5612 13.4152C18.6064 13.3699 18.6702 13.3486 18.7336 13.3576H23.9555C24.1085 13.3576 24.1961 13.4124 24.2183 13.5219L31.6737 34.5413C31.7394 34.7604 31.6736 34.8699 31.4765 34.8698H27.207C27.0552 34.8866 26.9147 34.7882 26.8786 34.6399L25.2036 29.7791ZM18.7992 25.6409H23.9884L23.9146 25.3967L23.7957 25.01L23.711 24.7385L23.5758 24.311L23.2883 23.4107L23.0355 22.6125L22.379 20.5338C22.2102 19.999 22.0534 19.4802 21.9086 18.9775L21.7884 18.555L21.648 18.0551L21.4337 17.2807C21.4203 17.2315 21.407 17.1828 21.3938 17.1346H21.361C21.1967 17.9231 20.9965 18.7036 20.7612 19.4737L20.2739 21.0409L20.0058 21.9069L19.7352 22.7836C19.6863 22.942 19.6376 23.0985 19.589 23.2532L19.4436 23.712L19.299 24.1597L19.1552 24.5966L19.0122 25.0225C18.9647 25.1627 18.9173 25.301 18.87 25.4375L18.7992 25.6409ZM36.1071 16.839C35.4296 16.8662 34.7725 16.6034 34.3007 16.1165C33.8308 15.6091 33.5825 14.9354 33.6109 14.2445C33.5868 13.5594 33.8556 12.8965 34.3499 12.4216C34.822 11.9685 35.4501 11.7159 36.1027 11.7147L36.1727 11.7156C36.961 11.7156 37.5795 11.9509 38.0284 12.4216C38.4859 12.9158 38.7282 13.5715 38.7016 14.2445C38.7294 14.9383 38.4746 15.6138 37.9955 16.1165C37.5112 16.5939 36.8552 16.8546 36.1773 16.8414L36.1071 16.839ZM33.8408 34.5413V18.8424C33.8408 18.6454 33.9281 18.5468 34.1036 18.5468H38.1433C38.3183 18.5468 38.4059 18.6453 38.4061 18.8424V34.5413C38.4061 34.7604 38.3185 34.8699 38.1433 34.8698H34.1364C33.9498 34.8698 33.8515 34.7715 33.8416 34.575L33.8408 34.5413Z" fill="#FF9A00"/>
</g>
<defs>
<clipPath id="clip0_66_143">
<rect width="50" height="50" fill="white" transform="translate(0.958374)"/>
</clipPath>
</defs>
</svg>
