<svg width="51" height="50" viewBox="0 0 51 50" fill="none" xmlns="http://www.w3.org/2000/svg">
<path d="M25.6038 49.4791L11.439 45.5468L8.28235 10.1422H42.9676L39.8077 45.5413L25.6038 49.4791Z" fill="#264DE4"/>
<path d="M37.1027 43.2873L39.8031 13.0371H25.6253V46.4693L37.1027 43.2873Z" fill="#2965F1"/>
<path d="M15.5186 26.1682L15.9078 30.5104H25.6248V26.1682H15.5186Z" fill="#EBEBEB"/>
<path d="M14.7368 17.3795L15.1316 21.7218H25.6251V17.3795H14.7368Z" fill="#EBEBEB"/>
<path d="M25.625 37.4454L25.606 37.4505L20.77 36.1447L20.4609 32.6815H16.102L16.7103 39.4995L25.605 41.9687L25.625 41.9631V37.4454Z" fill="#EBEBEB"/>
<path d="M16.4456 0.520874H21.7047V2.72018H18.6448V4.91947H21.7047V7.11879H16.4456V0.520874Z" fill="#333333"/>
<path d="M22.7566 0.520874H28.0158V2.43331H24.9559V2.8158H28.0158V7.21442H22.7566V5.20634H25.8165V4.82385H22.7566V0.520874Z" fill="#333333"/>
<path d="M29.0677 0.520874H34.3268V2.43331H31.2669V2.8158H34.3268V7.21442H29.0677V5.20634H32.1276V4.82385H29.0677V0.520874Z" fill="#333333"/>
<path d="M35.7034 26.1683L36.4873 17.3795H25.61V21.7218H31.7286L31.3335 26.1683H25.61V30.5105H30.957L30.453 36.142L25.61 37.4492V41.9667L34.5118 39.4996L34.5771 38.766L35.5975 27.3343L35.7034 26.1683Z" fill="white"/>
</svg>
