<svg width="50" height="50" viewBox="0 0 50 50" fill="none" xmlns="http://www.w3.org/2000/svg">
<path d="M16.8402 49.4793C21.3444 49.4793 24.9999 45.8237 24.9999 41.3195V33.1598H16.8402C12.336 33.1598 8.68047 36.8154 8.68047 41.3195C8.68047 45.8237 12.336 49.4793 16.8402 49.4793Z" fill="#0ACF83"/>
<path d="M8.68047 24.9999C8.68047 20.4957 12.336 16.8402 16.8402 16.8402H24.9999V33.1596H16.8402C12.336 33.1596 8.68047 29.5041 8.68047 24.9999Z" fill="#A259FF"/>
<path d="M8.68047 8.68061C8.68047 4.17643 12.336 0.520874 16.8402 0.520874H24.9999V16.8403H16.8402C12.336 16.8403 8.68047 13.1848 8.68047 8.68061Z" fill="#F24E1E"/>
<path d="M24.9997 0.520874H33.1595C37.6636 0.520874 41.3192 4.17643 41.3192 8.68061C41.3192 13.1848 37.6636 16.8403 33.1595 16.8403H24.9997V0.520874Z" fill="#FF7262"/>
<path d="M41.3192 24.9999C41.3192 29.5041 37.6636 33.1596 33.1595 33.1596C28.6553 33.1596 24.9997 29.5041 24.9997 24.9999C24.9997 20.4957 28.6553 16.8402 33.1595 16.8402C37.6636 16.8402 41.3192 20.4957 41.3192 24.9999Z" fill="#1ABCFE"/>
</svg>
