<svg width="51" height="50" viewBox="0 0 51 50" fill="none" xmlns="http://www.w3.org/2000/svg">
<path d="M42.9676 10.1423L39.8077 45.5414L25.6038 49.4792L11.439 45.5469L8.28235 10.1423H42.9676Z" fill="#E44D26"/>
<path d="M25.6245 46.4692L37.102 43.2873L39.8023 13.0371H25.6245V46.4692Z" fill="#F16529"/>
<path d="M19.4823 21.7216H25.6251V17.3794H14.7368L14.8408 18.5443L15.908 30.5103H25.6251V26.1681H19.8792L19.4823 21.7216Z" fill="#EBEBEB"/>
<path d="M20.4604 32.6815H16.1015L16.7099 39.4994L25.6046 41.9687L25.6245 41.9631V37.4454L25.6055 37.4505L20.7695 36.1446L20.4604 32.6815Z" fill="#EBEBEB"/>
<path d="M11.5096 0.520874H13.7162V2.70105H15.7348V0.520874H17.9416V7.12296H15.7349V4.91221H13.7164V7.12296H11.5097L11.5096 0.520874Z" fill="#333333"/>
<path d="M20.8436 2.71023H18.9009V0.520874H24.994V2.71023H23.0505V7.12296H20.8437L20.8436 2.71023Z" fill="#333333"/>
<path d="M25.9607 0.520874H28.2616L29.677 2.84066L31.091 0.520874H33.3928V7.12296H31.1952V3.85061L29.677 6.19801H29.639L28.1198 3.85061V7.12296H25.9607V0.520874Z" fill="#333333"/>
<path d="M34.4914 0.520874H36.6987V4.9407H39.8019V7.12296H34.4914V0.520874Z" fill="#333333"/>
<path d="M25.6103 30.5104H30.9572L30.4532 36.1419L25.6103 37.4491V41.9666L34.5121 39.4995L34.5774 38.7659L35.5978 27.3342L35.7037 26.1682H25.6103V30.5104Z" fill="white"/>
<path d="M25.6103 21.7111V21.7216H36.0988L36.1859 20.7456L36.3837 18.5443L36.4876 17.3794H25.6103V21.7111Z" fill="white"/>
</svg>
