<svg width="51" height="50" viewBox="0 0 51 50" fill="none" xmlns="http://www.w3.org/2000/svg">
<path d="M0.625 0V50H50.625V0H0.625ZM27.8348 38.9955C27.8348 43.8616 24.9777 46.0826 20.8147 46.0826C17.0536 46.0826 14.8772 44.1406 13.7612 41.7857L17.5893 39.4754C18.3259 40.7812 18.9955 41.8862 20.6138 41.8862C22.154 41.8862 23.1362 41.2835 23.1362 38.9286V22.9576H27.8348V38.9955ZM38.9509 46.0826C34.5871 46.0826 31.7634 44.0067 30.3906 41.2835L34.2188 39.0737C35.2232 40.7143 36.5402 41.9308 38.8504 41.9308C40.7924 41.9308 42.0424 40.9598 42.0424 39.6094C42.0424 38.0022 40.7701 37.433 38.6161 36.4844L37.4442 35.9821C34.0513 34.5424 31.808 32.7232 31.808 28.8951C31.808 25.3683 34.4978 22.6897 38.683 22.6897C41.6741 22.6897 43.817 23.7277 45.3571 26.4509L41.6964 28.7946C40.8929 27.3549 40.0223 26.7857 38.6719 26.7857C37.2991 26.7857 36.4286 27.6562 36.4286 28.7946C36.4286 30.2009 37.2991 30.7701 39.3192 31.6518L40.4911 32.154C44.4866 33.8616 46.7299 35.6138 46.7299 39.5424C46.7299 43.7612 43.404 46.0826 38.9509 46.0826Z" fill="#F7DF1E"/>
</svg>
