<svg width="49" height="48" viewBox="0 0 49 48" fill="none" xmlns="http://www.w3.org/2000/svg">
<path d="M40.8305 0H8.12786C3.63896 0 0 3.63896 0 8.12786V39.6065C0 44.0954 3.63896 47.7344 8.12786 47.7344H40.8305C45.3194 47.7344 48.9583 44.0954 48.9583 39.6065V8.12786C48.9583 3.63896 45.3194 0 40.8305 0Z" fill="#001E36"/>
<path d="M11.0242 33.4742V12.4877C11.0242 12.3347 11.0899 12.2577 11.2213 12.2577L11.4291 12.2571L11.7844 12.2532L12.2783 12.2435L13.9327 12.2085L15.7062 12.1756C16.3302 12.1649 16.9486 12.1592 17.5618 12.1592C19.2255 12.1592 20.6268 12.3672 21.7656 12.7832C22.793 13.1307 23.7298 13.7029 24.5081 14.4582C25.1678 15.1128 25.6776 15.9028 26.0024 16.7736C26.3096 17.6211 26.4653 18.5161 26.4623 19.4175C26.4623 21.1694 26.0572 22.6145 25.2471 23.7527C24.4542 24.8639 23.3488 25.7128 22.0726 26.1922L21.9628 26.2324C20.6293 26.7299 19.1525 26.9096 17.5328 26.9211L17.2812 26.9216L16.9078 26.9196L16.7192 26.917L16.5092 26.912L16.3828 26.9071L16.3059 26.9031L16.1167 26.8962L15.8855 26.8915L15.5374 26.8889C15.512 26.8888 15.4862 26.8888 15.4599 26.8888V33.4414C15.4715 33.5228 15.4441 33.605 15.386 33.6631C15.3278 33.7213 15.2457 33.7486 15.1643 33.737H11.2541C11.1007 33.737 11.0242 33.6497 11.0242 33.4742ZM15.4599 16.1989V23.0439C15.7442 23.0659 16.0069 23.0768 16.2481 23.0767H17.3319C18.0795 23.0742 18.8225 22.9629 19.5376 22.7465L19.6802 22.7018C20.3308 22.5085 20.9122 22.1323 21.3552 21.618C21.7668 21.1326 21.9801 20.4637 21.9948 19.6115L21.9956 19.5161C22.013 18.8807 21.8477 18.2538 21.5193 17.7096C21.1742 17.1834 20.6754 16.7764 20.0907 16.5438C19.3272 16.247 18.5118 16.1074 17.6932 16.1332L17.2766 16.1344L17.0139 16.1366L16.7631 16.1399L16.4093 16.1468L16.1513 16.1541L16.017 16.159L15.8378 16.1674L15.6852 16.1768L15.5982 16.1837L15.5232 16.1911C15.5116 16.1923 15.5006 16.1936 15.4901 16.1949L15.4599 16.1989ZM39.1608 21.7992C38.5877 21.5048 37.9799 21.2837 37.3519 21.1411L37.2067 21.1095C36.5155 20.951 35.81 20.8637 35.1013 20.8489L34.9241 20.8468C34.5085 20.8355 34.0935 20.8853 33.6925 20.9946C33.4371 21.0514 33.2103 21.1969 33.052 21.4051C32.945 21.5717 32.888 21.7655 32.8878 21.9635C32.8938 22.1555 32.9631 22.3403 33.0849 22.4889C33.2593 22.6929 33.4689 22.8637 33.7034 22.9932L33.7745 23.0308C34.2428 23.283 34.7253 23.5078 35.2196 23.7041C36.3219 24.0731 37.3752 24.5749 38.3561 25.1985C39.0244 25.6202 39.5774 26.2015 39.9654 26.8899C40.2917 27.5417 40.4552 28.263 40.4417 28.9918C40.4613 29.9542 40.1863 30.8997 39.6535 31.7014C39.083 32.5152 38.2907 33.1479 37.3708 33.5241C36.4075 33.9473 35.2245 34.166 33.8219 34.1803L33.676 34.181C32.8065 34.1898 31.9382 34.1137 31.0837 33.9538L30.9008 33.9182C30.1812 33.7863 29.4806 33.5657 28.8153 33.2614C28.6784 33.1907 28.5913 33.0523 28.5854 32.9001V29.3203C28.5773 29.2495 28.6089 29.1801 28.6676 29.1396C28.7253 29.1069 28.7972 29.1135 28.8481 29.1561C29.6339 29.6194 30.4871 29.9573 31.377 30.1577C32.1614 30.3543 32.966 30.4591 33.7745 30.4698C34.5407 30.4698 35.1045 30.3712 35.4659 30.1742C35.7994 30.0215 36.0117 29.6869 36.0079 29.3203C36.0079 29.0359 35.8437 28.7623 35.5153 28.4992C35.3776 28.389 35.1802 28.2692 34.923 28.1398L34.8002 28.0793L34.6688 28.0175C34.6462 28.0071 34.6232 27.9966 34.5999 27.9861L34.4558 27.9223C34.4311 27.9115 34.406 27.9007 34.3806 27.8899L34.2238 27.824C34.1969 27.8129 34.1697 27.8017 34.1422 27.7905L33.9727 27.7226C33.9437 27.7111 33.9144 27.6996 33.8847 27.6881L33.7025 27.6181L33.5118 27.5467C32.4805 27.1878 31.5028 26.6906 30.6052 26.0688C29.9632 25.6223 29.4346 25.0318 29.0616 24.3445C28.7386 23.6974 28.5753 22.9823 28.5854 22.259C28.5835 21.3901 28.8222 20.5375 29.2751 19.7958C29.7914 18.9791 30.5327 18.329 31.4099 17.9238C32.3731 17.4424 33.5773 17.2016 35.0226 17.2012C35.869 17.1944 36.7146 17.2548 37.5515 17.3819C38.1575 17.4587 38.75 17.619 39.3121 17.8581C39.4025 17.884 39.4755 17.9509 39.5091 18.0387C39.5314 18.1189 39.5424 18.2018 39.542 18.2851V21.6021C39.5466 21.6807 39.5091 21.7558 39.4435 21.7992C39.3545 21.8435 39.2499 21.8435 39.1608 21.7992Z" fill="#31A8FF"/>
</svg>
