<svg width="60" height="50" viewBox="0 0 60 50" fill="none" xmlns="http://www.w3.org/2000/svg">
<path d="M35.575 25.0058C35.575 26.3926 34.9864 27.7227 33.9386 28.7035C32.8908 29.6843 31.4696 30.2356 29.9875 30.2363C28.5049 30.2363 27.0831 29.6852 26.0348 28.7043C24.9864 27.7234 24.3975 26.393 24.3975 25.0058C24.3975 23.6191 24.9861 22.289 26.0339 21.3082C27.0817 20.3274 28.5029 19.7761 29.985 19.7754C31.4676 19.7754 32.8894 20.3265 33.9377 21.3074C34.9861 22.2883 35.575 23.6187 35.575 25.0058ZM42.195 0C38.83 0 34.4275 2.24561 29.975 6.13333C25.525 2.26667 21.12 0.0467836 17.7575 0.0467836C16.7325 0.0467836 15.8 0.264327 14.9925 0.697076C11.555 2.55205 10.785 8.33216 12.56 15.586C4.95 17.7848 0 21.3006 0 25.0058C0 28.7251 4.975 32.2503 12.6075 34.4327C10.8475 41.7146 11.6325 47.5041 15.0775 49.3567C15.8775 49.7942 16.8025 50 17.8325 50C21.195 50 25.6 47.7544 30.0525 43.862C34.5025 47.731 38.9075 49.9509 42.27 49.9509C43.295 49.9509 44.2275 49.7403 45.035 49.3076C48.47 47.455 49.2425 41.6749 47.4675 34.4187C55.05 32.2386 60 28.7158 60 25.0058C60 21.2865 55.025 17.7614 47.3925 15.5743C49.1525 8.29941 48.3675 2.50526 44.9225 0.650292C44.1275 0.219883 43.205 0.00233918 42.195 0ZM42.1825 2.54971V2.56374C42.745 2.56374 43.1975 2.66667 43.5775 2.86082C45.2425 3.75439 45.965 7.15322 45.4025 11.5251C45.2675 12.6012 45.0475 13.7357 44.7775 14.8936C42.3775 14.3415 39.7625 13.9181 37.01 13.6444C35.36 11.5275 33.6475 9.60468 31.9225 7.92047C35.9025 4.45848 39.64 2.55906 42.185 2.55205L42.1825 2.54971ZM17.7575 2.59649C20.2875 2.59649 24.0425 4.48655 28.0325 7.92982C26.3175 9.61403 24.6075 11.5251 22.9825 13.6421C20.215 13.9158 17.5975 14.3392 15.2 14.9006C14.92 13.7544 14.7125 12.6456 14.565 11.5789C13.99 7.20936 14.7 3.81287 16.35 2.9076C16.825 2.69708 17.35 2.60819 17.7575 2.59649ZM29.9625 9.73099C31.1 10.8257 32.2375 12.0515 33.3625 13.3895C32.2625 13.3427 31.1375 13.3099 30 13.3099C28.85 13.3099 27.7125 13.3333 26.6 13.3895C27.7 12.0515 28.8375 10.8281 29.9625 9.73099ZM30 15.8737C31.85 15.8737 33.6925 15.9532 35.505 16.0912C36.52 17.4526 37.51 18.9053 38.4625 20.4421C39.3925 21.9392 40.2375 23.4596 41.0075 24.9942C40.2375 26.5263 39.3925 28.0585 38.475 29.5556C37.525 31.0994 36.5425 32.5684 35.525 33.9298C33.705 34.0772 31.86 34.1591 30 34.1591C28.15 34.1591 26.3075 34.0772 24.495 33.9415C23.48 32.5801 22.49 31.1251 21.5375 29.5906C20.6075 28.0936 19.7625 26.5731 18.9925 25.0386C19.75 23.5018 20.6075 21.9673 21.525 20.4678C22.475 18.924 23.4575 17.4596 24.475 16.0982C26.295 15.9485 28.14 15.869 30 15.869V15.8737ZM20.9125 16.4678C20.3125 17.3497 19.7125 18.2526 19.1525 19.1813C18.59 20.0936 18.065 21.0105 17.565 21.9275C16.9025 20.393 16.34 18.8632 15.875 17.3731C17.475 17.0222 19.1625 16.7088 20.9125 16.4678ZM39.0625 16.4678C40.8 16.7088 42.475 17.0058 44.0775 17.3731C43.6275 18.8515 43.065 20.3719 42.4275 21.8947C41.9275 20.9825 41.4025 20.0632 40.8275 19.1485C40.265 18.2316 39.665 17.338 39.065 16.4678H39.0625ZM46.72 18.0468C47.93 18.3977 49.08 18.7883 50.1575 19.2117C54.4875 20.9427 57.2875 23.207 57.2875 25.0035C57.275 26.8 54.475 29.0737 50.145 30.793C49.095 31.214 47.945 31.593 46.7575 31.9462C46.0575 29.7053 45.1425 27.3708 44.0075 24.9754C45.1325 22.5965 46.0325 20.2737 46.72 18.0421V18.0468ZM13.2325 18.0561C13.9275 20.3018 14.845 22.6339 15.9825 25.0269C14.8575 27.4058 13.9525 29.7287 13.2675 31.9602C12.0575 31.6094 10.9075 31.2164 9.8425 30.7906C5.5125 29.0667 2.7125 26.8 2.7125 25.0035C2.7125 23.207 5.5125 20.9287 9.8425 19.2117C10.8925 18.7906 12.0425 18.4117 13.2325 18.0561ZM42.4275 28.0678C43.09 29.6047 43.6525 31.1368 44.1175 32.6246C42.5175 32.9918 40.8275 33.3029 39.0775 33.5368C39.6775 32.6596 40.2775 31.7544 40.84 30.8281C41.4025 29.9158 41.925 28.9848 42.4275 28.0678ZM17.565 28.1146C18.065 29.0316 18.59 29.9462 19.165 30.8632C19.74 31.7754 20.3275 32.669 20.9275 33.5368C19.19 33.2982 17.515 32.9988 15.9125 32.6339C16.3625 31.1602 16.9275 29.6351 17.5625 28.1123L17.565 28.1146ZM44.8 35.1018C45.08 36.255 45.3 37.3661 45.435 38.4304C46.01 42.8 45.3 46.1965 43.65 47.1041C43.2825 47.3146 42.805 47.4035 42.2425 47.4035C39.7125 47.4035 35.9575 45.5158 31.9675 42.0702C33.6825 40.386 35.3925 38.4772 37.0175 36.3626C39.785 36.0865 42.4025 35.6632 44.8 35.1018ZM15.225 35.1251C17.625 35.6725 20.24 36.0959 22.9925 36.3696C24.6425 38.4865 26.355 40.4094 28.08 42.0912C24.0925 45.5602 20.35 47.4597 17.805 47.4597C17.255 47.448 16.79 47.3427 16.4225 47.1509C14.7575 46.262 14.035 42.8608 14.5975 38.4889C14.7325 37.4129 14.955 36.2807 15.225 35.1251ZM26.625 36.6222C27.725 36.669 28.85 36.7018 29.9875 36.7018C31.1375 36.7018 32.275 36.6784 33.3875 36.6222C32.2875 37.9602 31.15 39.1836 30.025 40.283C28.8875 39.1836 27.75 37.9602 26.625 36.6222Z" fill="#61DAFB"/>
</svg>
