<svg width="120" height="29" viewBox="0 0 120 29" fill="none" xmlns="http://www.w3.org/2000/svg">
<path d="M89.541 8.85069V24.6118H84.6348V6.38245L89.541 8.85069Z" fill="#F37368"/>
<path d="M20.1028 21.6856L23.7825 25L39.2851 16.6436L37.6838 12.6592L20.1028 21.6856ZM84.6347 11.5308L97.1049 4.83144L94.9924 1.05859L84.6347 6.38283V11.5308Z" fill="#F7A199"/>
<path d="M49.5407 7.61654V24.6118H44.8389V0.388306L49.5407 7.61654ZM20.1028 21.6853L23.7825 24.9997L30.8694 6.66454L28.5866 0.388306L20.1028 21.6853Z" fill="#F37368"/>
<path d="M28.5858 0.388306H33.424L42.3849 24.6118H37.4103L28.5858 0.388306ZM50.2554 0.388306L60.5791 16.9251V24.6118L44.838 0.388306H50.2554ZM69.4379 0.388306H74.31V24.6118H69.4379V0.388306ZM84.6338 4.83109H77.1381V0.388306H94.6168L97.104 4.83109H84.6338Z" fill="#F04939"/>
<path d="M111.516 15.4089V24.6118H106.678V15.4089" fill="#F7A199"/>
<path d="M114.855 0.388306L106.678 15.409H111.516L120 0.388306H114.855Z" fill="#F04939"/>
<path d="M106.679 15.409L98.2292 0.388306H103.544L109.234 10.6842L106.679 15.409Z" fill="#F37368"/>
<path d="M1.94198 3.20862C1.94198 6.55831 3.9522 8.56813 7.97267 9.62595L12.2317 10.6484C16.0477 11.5652 18.3646 13.8218 18.3646 17.4888C18.3987 19.0755 17.8875 20.6269 16.9676 21.8964C16.9676 18.2293 15.1278 16.2548 10.7325 15.0559L6.54165 14.0686C3.16856 13.2928 0.579102 11.4241 0.579102 7.43976C0.579102 5.92364 1.0561 4.4074 1.94198 3.20862Z" fill="#F04939"/>
<path d="M60.5794 15.6911V0.388306H65.2813V24.6118H60.5794V15.6911Z" fill="#F37368"/>
<path d="M14.3442 16.5721C16.15 17.7709 16.9677 19.4634 16.9677 21.8963C15.4345 23.9062 12.811 24.9991 9.71044 24.9991C4.49747 24.9991 0.783655 22.3195 0 17.7003H5.00854C5.65591 19.816 7.3595 20.8033 9.67638 20.8033C12.4361 20.8385 14.3101 19.2871 14.3442 16.5721ZM1.94208 3.17333C3.40718 1.19878 5.92848 0 8.99494 0C14.3442 0 17.4107 2.92654 18.1943 7.01672H13.3561C12.811 5.39478 11.4822 4.12532 9.06308 4.12532C6.43955 4.1606 4.66783 5.71212 4.56562 8.18023C2.8099 7.17816 1.87395 5.21842 1.94208 3.17333Z" fill="#F37368"/>
</svg>
