<svg width="45" height="27" viewBox="0 0 45 27" fill="none" xmlns="http://www.w3.org/2000/svg">
<path d="M22.3125 0C16.3625 0 12.6437 2.97499 11.1563 8.925C13.3875 5.94999 15.9906 4.83437 18.9656 5.57812C20.6632 6.00206 21.8756 7.23296 23.2198 8.59774C25.4083 10.8178 27.939 13.3875 33.4687 13.3875C39.4187 13.3875 43.1375 10.4125 44.625 4.46248C42.3937 7.43749 39.7907 8.55311 36.8156 7.80937C35.118 7.38544 33.9058 6.15452 32.5614 4.78974C30.3748 2.56965 27.8441 0 22.3125 0ZM11.1563 13.3875C5.20626 13.3875 1.4875 16.3626 0 22.3125C2.23125 19.3375 4.83437 18.2218 7.80938 18.9656C9.50698 19.3896 10.7193 20.6205 12.0636 21.9853C14.2521 24.2053 16.7827 26.775 22.3125 26.775C28.2624 26.775 31.9813 23.8 33.4687 17.85C31.2375 20.8251 28.6344 21.9407 25.6594 21.1969C23.9617 20.773 22.7494 19.542 21.4052 18.1772C19.2185 15.9572 16.6879 13.3875 11.1563 13.3875Z" fill="#38BDF8"/>
</svg>
