<svg width="120" height="28" viewBox="0 0 120 28" fill="none" xmlns="http://www.w3.org/2000/svg">
<path d="M59.8642 6.99993C55.1783 6.99993 51.7997 10.1499 51.7997 14.8749C51.7997 19.6 55.6028 22.7499 60.2886 22.7499C63.1197 22.7499 65.6155 21.595 67.1604 19.648L63.9134 17.7143C63.056 18.6811 61.753 19.2455 60.2886 19.2455C58.2555 19.2455 56.528 18.1518 55.8871 16.4018H67.7801C67.8735 15.9118 67.9287 15.4043 67.9287 14.8706C67.9287 10.1499 64.55 6.99993 59.8642 6.99993ZM55.8489 13.3436C56.3794 11.598 57.8311 10.5 59.86 10.5C61.8931 10.5 63.3447 11.598 63.871 13.3436H55.8489ZM105.569 6.99993C100.883 6.99993 97.5042 10.1499 97.5042 14.8749C97.5042 19.6 101.307 22.7499 105.993 22.7499C108.824 22.7499 111.32 21.595 112.865 19.648L109.618 17.7143C108.761 18.6811 107.458 19.2455 105.993 19.2455C103.96 19.2455 102.233 18.1518 101.592 16.4018H113.485C113.578 15.9118 113.633 15.4043 113.633 14.8706C113.633 10.1499 110.255 6.99993 105.569 6.99993ZM101.558 13.3436C102.088 11.598 103.54 10.5 105.569 10.5C107.602 10.5 109.053 11.598 109.58 13.3436H101.558ZM84.9915 14.8749C84.9915 17.4999 86.6553 19.25 89.236 19.25C90.9848 19.25 92.2962 18.4318 92.9711 17.0974L96.2309 19.0356C94.8812 21.3543 92.3515 22.7499 89.236 22.7499C84.5459 22.7499 81.1714 19.6 81.1714 14.8749C81.1714 10.1499 84.5501 6.99993 89.236 6.99993C92.3515 6.99993 94.8768 8.39552 96.2309 10.7143L92.9711 12.6524C92.2962 11.318 90.9848 10.5 89.236 10.5C86.6595 10.5 84.9915 12.2499 84.9915 14.8749ZM120 2.18747V22.3125H116.18V2.18747H120ZM15.6834 0L31.3667 28H0L15.6834 0ZM54.8939 2.18747L43.1325 23.1874L31.3709 2.18747H35.7809L43.1325 15.3124L50.4839 2.18747H54.8939ZM79.8982 7.43745V11.6769C79.4737 11.5499 79.0238 11.4624 78.5399 11.4624C76.0739 11.4624 74.2954 13.2125 74.2954 15.8375V22.3125H70.4754V7.43745H74.2954V11.4624C74.2954 9.23991 76.804 7.43745 79.8982 7.43745Z" fill="white"/>
</svg>
