<svg width="40" height="44" viewBox="0 0 40 44" fill="none" xmlns="http://www.w3.org/2000/svg">
<path d="M4.33065 13.0161L12.5161 35.4355C6.79032 32.6613 2.84677 26.7903 2.84677 20C2.84677 17.5081 3.37903 15.1532 4.33065 13.0161ZM31.5806 19.1371C31.5806 17.0161 30.8226 15.5484 30.1694 14.4032C29.2984 12.9919 28.4839 11.7903 28.4839 10.379C28.4839 8.79839 29.6774 7.33065 31.3629 7.33065C31.4355 7.33065 31.5081 7.33871 31.5887 7.34677C28.5323 4.54839 24.4677 2.83871 20 2.83871C14.0081 2.83871 8.73387 5.91129 5.66129 10.5726C6.06452 10.5887 6.44355 10.5968 6.76613 10.5968C8.55645 10.5968 11.3387 10.379 11.3387 10.379C12.2661 10.3226 12.371 11.6855 11.4516 11.7903C11.4516 11.7903 10.5242 11.8952 9.49193 11.9516L15.7419 30.5323L19.5 19.2742L16.8306 11.9516C15.9032 11.8952 15.0323 11.7903 15.0323 11.7903C14.1048 11.7339 14.2177 10.3226 15.1371 10.379C15.1371 10.379 17.9677 10.5968 19.6532 10.5968C21.4435 10.5968 24.2258 10.379 24.2258 10.379C25.1532 10.3226 25.2581 11.6855 24.3387 11.7903C24.3387 11.7903 23.4113 11.8952 22.379 11.9516L28.5806 30.3952L30.2903 24.6774C31.0161 22.3065 31.5806 20.6048 31.5806 19.1371ZM20.2984 21.5L15.1532 36.4597C16.6935 36.9113 18.3145 37.1613 20 37.1613C22 37.1613 23.9113 36.8145 25.6935 36.1855C25.6452 36.1129 25.6048 36.0323 25.5726 35.9516L20.2984 21.5ZM35.0564 11.7661C35.129 12.3145 35.1694 12.8952 35.1694 13.5323C35.1694 15.2742 34.8468 17.2258 33.8629 19.6774L28.621 34.8306C33.7258 31.8548 37.1532 26.3306 37.1532 20C37.1532 17.0161 36.3952 14.2097 35.0564 11.7661ZM40 20C40 31.0323 31.0242 40 20 40C8.96774 40 0 31.0242 0 20C0 8.96774 8.96774 0 20 0C31.0242 0 40 8.96774 40 20ZM39.0806 20C39.0806 9.47581 30.5161 0.919355 20 0.919355C9.47581 0.919355 0.919355 9.47581 0.919355 20C0.919355 30.5242 9.48387 39.0806 20 39.0806C30.5242 39.0806 39.0806 30.5242 39.0806 20Z" fill="#21759B"/>
</svg>
