<svg width="160" height="60" viewBox="0 0 160 60" fill="none" xmlns="http://www.w3.org/2000/svg">
<path d="M47.3049 19.4477C46.7543 18.3877 46.1272 17.3949 45.439 16.496L44.8655 15.7446L42.6784 16.7509C41.7914 17.1601 40.9043 17.5626 40.0249 17.9718L38.8625 18.5018L39.6196 19.441C40.1931 20.1588 40.7055 20.9436 41.1413 21.7822C42.0437 23.513 42.4949 25.3645 42.4949 27.3032C42.4949 29.2419 42.0361 31.1471 41.1413 32.8779C40.2313 34.6221 38.9772 36.165 37.4019 37.4665C35.8343 38.7679 33.9684 39.8278 31.8578 40.5993C29.7701 41.364 27.5066 41.7464 25.1436 41.7464C22.7807 41.7464 20.5248 41.3573 18.4601 40.5993C16.3648 39.8211 14.5065 38.7612 12.9389 37.4597C11.3712 36.1516 10.1171 34.6087 9.19946 32.8645C8.30475 31.1471 7.85357 29.2688 7.85357 27.2898C7.85357 25.3108 8.30475 23.4928 9.19946 21.7755C10.1095 20.038 11.3636 18.4951 12.9389 17.1802C14.5218 15.8654 16.3801 14.8122 18.4601 14.0407C19.9895 13.4839 21.603 13.1216 23.2625 12.9741L24.333 12.8801L24.2948 11.9343C24.2413 10.7066 24.1954 9.48569 24.1495 8.25805L24.1113 7.19812L22.9107 7.28533C20.456 7.46646 18.0777 7.96959 15.8295 8.7746C12.9465 9.8144 10.3848 11.2567 8.20534 13.0613C6.03357 14.8725 4.29003 17.0125 3.02826 19.4343C1.7512 21.8895 1.1012 24.5326 1.1012 27.2898C1.1012 30.047 1.7512 32.6968 3.02826 35.1453C4.29003 37.5671 6.02592 39.7138 8.20534 41.5385C10.3848 43.3564 12.9542 44.8054 15.8295 45.8453C18.7201 46.8851 21.8554 47.415 25.1589 47.415C28.4625 47.415 31.5978 46.8851 34.5113 45.8453C37.4249 44.8054 40.0019 43.3497 42.1661 41.5385C44.3455 39.7138 46.0737 37.5604 47.3202 35.1386C48.5743 32.6968 49.209 30.0537 49.209 27.2831C49.209 24.5125 48.5743 21.8694 47.3202 19.4275L47.3049 19.4477Z" fill="#3E3E3E"/>
<path d="M50.0196 10.237C49.0867 9.0027 47.9779 7.84885 46.7237 6.80905C44.5596 5.00448 41.9825 3.56218 39.069 2.52237C36.1402 1.48257 32.9972 0.952606 29.7243 0.952606C28.9596 0.952606 28.2025 0.97944 27.476 1.03982L26.3901 1.12032L26.4284 2.23391C26.4743 3.40788 26.5125 4.58856 26.566 5.76253L26.6119 6.8493L27.8431 6.72184C28.4166 6.66146 29.0284 6.63463 29.7166 6.63463C32.0719 6.63463 34.3278 7.02371 36.4308 7.78847C38.5261 8.55323 40.392 9.61316 41.9749 10.9213C42.8084 11.6123 43.5502 12.3703 44.1849 13.1686L44.7584 13.8931L45.6532 13.4839C46.5096 13.0948 47.3737 12.699 48.2302 12.3032L50.7155 11.1628L50.012 10.2303L50.0196 10.237Z" fill="#3E3E3E"/>
<path d="M61.3679 16.2411H57.3302V44.5774H61.3679V16.2411Z" fill="#3E3E3E"/>
<path d="M89.295 31.5899H99.8862V28.1888H85.2573V44.5774H102.341V41.1829H89.295V31.5899Z" fill="#3E3E3E"/>
<path d="M102.341 16.2411H85.2573V19.6423H102.341V16.2411Z" fill="#3E3E3E"/>
<path d="M122.705 38.3386C122.659 38.2983 122.606 38.2581 122.545 38.2044C120.824 36.7353 119.44 34.9911 118.43 33.0255C117.436 31.0734 116.924 28.9871 116.924 26.8068C116.924 24.6266 117.429 22.5537 118.423 20.6217C119.425 18.6829 120.809 16.9455 122.537 15.4562C124.25 13.9871 126.299 12.8064 128.609 11.9544C130.918 11.1092 133.442 10.6798 136.095 10.6798C138.206 10.6798 140.255 10.9817 142.182 11.572L143.131 11.8672L146.946 6.58768L145.493 6.10468C142.496 5.11183 139.338 4.6087 136.095 4.6087C132.47 4.6087 128.991 5.19234 125.756 6.34618C122.537 7.50003 119.7 9.08992 117.299 11.0823C114.897 13.0814 112.978 15.4495 111.602 18.1261C110.217 20.8229 109.514 23.7411 109.514 26.8068C109.514 29.8726 110.217 32.784 111.602 35.4808C112.978 38.1574 114.89 40.5322 117.299 42.5515C117.696 42.8802 118.109 43.2022 118.522 43.504L119.631 44.3091L123.516 38.9558L122.697 38.3252L122.705 38.3386Z" fill="#3E3E3E"/>
<path d="M77.098 41.5922H64.5338V44.1682H77.098V41.5922Z" fill="#3E3E3E"/>
<path d="M140.928 21.326L136.401 27.5582L151.236 27.5716C150.961 29.4164 150.089 31.1874 149.325 32.4352C148.239 34.2196 146.809 35.7894 145.073 37.0908C143.329 38.3989 141.295 39.4387 139.039 40.1834C136.799 40.9146 134.359 41.2567 131.813 41.2098L131.086 41.1963C129.909 41.1695 128.754 41.0622 127.653 40.8743L126.804 40.7268L122.881 46.1136L124.571 46.496C126.597 46.9522 128.739 47.2071 130.926 47.254L131.652 47.2675C131.882 47.2675 132.103 47.2742 132.333 47.2742C135.682 47.2742 138.909 46.771 141.938 45.7715C145.165 44.6981 148.04 43.182 150.479 41.2701C152.934 39.3381 154.922 37.0237 156.383 34.394C157.859 31.7576 158.669 28.8864 158.799 25.8341L158.906 21.6816L140.92 21.3193L140.928 21.326Z" fill="#3E3E3E"/>
<path d="M10.2395 58.9602H9.70418L6.05652 51.1986H7.24182L9.98712 57.0349L11.7918 53.2245L10.8512 51.1986H12.0365L12.3883 51.9634C12.4571 51.8292 12.5183 51.695 12.5871 51.5676C12.656 51.4401 12.7095 51.3127 12.7554 51.1986H13.9407L12.9848 53.2313C13.153 53.5868 13.306 53.9155 13.4513 54.2241C13.5889 54.5327 13.7342 54.8279 13.8718 55.123C14.0095 55.4182 14.1548 55.7201 14.3001 56.0287C14.4454 56.3372 14.606 56.6727 14.7742 57.0349C15.2254 56.0756 15.6842 55.1029 16.1583 54.1101C16.6324 53.1172 17.0913 52.1512 17.5424 51.2053H18.7277L15.0418 58.9669H14.5065L12.4112 54.4656L10.2548 58.9669L10.2395 58.9602Z" fill="#3E3E3E"/>
<path d="M20.9454 58.9602V52.6409H26.0002V53.3855H22.0772V55.2169H25.2125V55.9615H22.0772V58.2156H26.0002V58.9602H20.9454Z" fill="#3E3E3E"/>
<path d="M29.3801 52.6409H32.6837C33.0507 52.6409 33.3796 52.6811 33.6854 52.7683C33.9913 52.8555 34.2437 52.9629 34.4654 53.1105C34.6872 53.258 34.8554 53.4258 34.9778 53.627C35.1002 53.8283 35.1613 54.0429 35.1613 54.271C35.1613 54.7741 34.909 55.1632 34.4119 55.4316C34.8937 55.5657 35.2531 55.7737 35.5131 56.0487C35.7654 56.3305 35.8954 56.6793 35.8954 57.1087C35.8954 57.4441 35.796 57.7258 35.6049 57.9606C35.4137 58.1954 35.1537 58.3833 34.8249 58.5309C34.496 58.6851 34.1137 58.7925 33.6701 58.8596C33.2266 58.9266 32.7601 58.9602 32.2631 58.9602H29.3801V52.6409ZM30.5042 53.3855V55.2169H32.6684C32.8748 55.2169 33.066 55.1834 33.2419 55.1297C33.4178 55.076 33.5631 55.0022 33.6854 54.915C33.8078 54.8278 33.9072 54.7272 33.976 54.6131C34.0449 54.4991 34.0831 54.3918 34.0831 54.2777C34.0831 54.0429 33.9607 53.835 33.7237 53.6605C33.4866 53.4861 33.1425 53.3922 32.6913 53.3922H30.5119L30.5042 53.3855ZM30.5042 55.9615V58.2357H32.3166C33.0966 58.2357 33.7007 58.1351 34.1213 57.9271C34.5419 57.7191 34.7637 57.4508 34.7637 57.1221C34.7637 56.3506 34.0525 55.9615 32.6378 55.9615H30.4966H30.5042Z" fill="#3E3E3E"/>
<path d="M46.0967 51.1986H47.8249C48.6355 51.1986 49.3926 51.2992 50.1038 51.4937C50.8149 51.6883 51.442 51.9566 51.9696 52.2988C52.4973 52.6409 52.9179 53.0501 53.2238 53.513C53.5296 53.9826 53.6826 54.4924 53.6826 55.0425C53.6826 55.5926 53.5296 56.1024 53.2238 56.5787C52.9179 57.055 52.5049 57.4709 51.9696 57.8198C51.442 58.1686 50.8226 58.4504 50.1114 58.6516C49.4002 58.8529 48.6432 58.9535 47.8402 58.9535H46.0967V51.1919V51.1986ZM47.2208 51.9633V58.1887H47.8249C48.4826 58.1887 49.0943 58.1082 49.6679 57.9472C50.2414 57.7862 50.7385 57.5649 51.1667 57.2831C51.5949 57.0013 51.9314 56.6659 52.1838 56.2835C52.4285 55.8945 52.5585 55.4852 52.5585 55.0425C52.5585 54.5997 52.4361 54.1905 52.1838 53.8149C51.9314 53.4392 51.5949 53.1172 51.1667 52.8354C50.7385 52.5604 50.2414 52.3457 49.6679 52.1914C49.0943 52.0371 48.4826 51.9633 47.8249 51.9633H47.2208Z" fill="#3E3E3E"/>
<path d="M56.6344 58.9602V52.6409H61.6891V53.3855H57.7662V55.2169H60.9015V55.9615H57.7662V58.2156H61.6891V58.9602H56.6344Z" fill="#3E3E3E"/>
<path d="M67.4015 58.9602L64.2509 52.6409H65.4362L67.6844 57.1288C67.9291 56.6324 68.1738 56.1427 68.4109 55.6597C68.6479 55.1767 68.9003 54.687 69.1526 54.1905L68.3803 52.6409H69.5503L69.7491 53.0099L69.9326 52.6409H71.1026L70.3303 54.1972C70.4679 54.4857 70.5979 54.7473 70.7203 54.9754C70.835 55.2102 70.9497 55.4316 71.0644 55.653C71.1791 55.8743 71.2938 56.1024 71.4085 56.3305C71.5232 56.5653 71.6532 56.8202 71.7985 57.1087C72.1732 56.3574 72.5479 55.6127 72.9303 54.8681C73.3127 54.1235 73.6874 53.3788 74.0621 52.6342H75.2321L72.0662 58.9535H71.5309L69.7415 55.3712L67.952 58.9535H67.4168L67.4015 58.9602Z" fill="#3E3E3E"/>
<path d="M77.7709 58.9602V52.6409H82.8256V53.3855H78.9026V55.2169H82.038V55.9615H78.9026V58.2156H82.8256V58.9602H77.7709Z" fill="#3E3E3E"/>
<path d="M91.2451 58.2156V58.9602H86.2057V52.6409H87.3298V58.2156H91.2451Z" fill="#3E3E3E"/>
<path d="M97.5998 52.547C98.2345 52.547 98.8539 52.6208 99.4427 52.775C100.032 52.9226 100.559 53.144 101.01 53.4258C101.462 53.7075 101.829 54.0496 102.104 54.4522C102.379 54.8547 102.509 55.3041 102.509 55.8005C102.509 56.297 102.372 56.7531 102.104 57.1556C101.836 57.5581 101.469 57.8936 101.01 58.1753C100.552 58.4571 100.032 58.6717 99.4427 58.826C98.8539 58.9803 98.2345 59.0541 97.5998 59.0541C96.9651 59.0541 96.3456 58.9803 95.7492 58.826C95.1527 58.6717 94.6251 58.4571 94.1739 58.1753C93.7151 57.8936 93.3556 57.5514 93.0803 57.1556C92.805 56.7598 92.675 56.3037 92.675 55.8005C92.675 55.2974 92.8127 54.8547 93.0803 54.4522C93.3556 54.0496 93.7151 53.7075 94.1739 53.4258C94.6251 53.144 95.1527 52.9293 95.7492 52.775C96.3456 52.6208 96.9651 52.547 97.5998 52.547ZM97.5998 53.2916C97.1027 53.2916 96.6209 53.352 96.1621 53.466C95.7033 53.5868 95.298 53.7478 94.9462 53.9624C94.5945 54.1771 94.3115 54.4387 94.1127 54.7473C93.9062 55.0559 93.8068 55.4047 93.8068 55.7938C93.8068 56.1829 93.9062 56.5318 94.1127 56.8403C94.3192 57.1489 94.5945 57.4106 94.9462 57.6319C95.298 57.8533 95.7033 58.0143 96.1621 58.1284C96.6209 58.2424 97.1027 58.2961 97.5998 58.2961C98.0968 58.2961 98.571 58.2424 99.0298 58.1284C99.4886 58.0143 99.8863 57.8466 100.238 57.6319C100.59 57.4173 100.865 57.1489 101.072 56.8403C101.278 56.5318 101.377 56.1829 101.377 55.7938C101.377 55.4047 101.27 55.0559 101.072 54.7473C100.865 54.4387 100.59 54.1771 100.238 53.9624C99.8863 53.7478 99.481 53.5801 99.0298 53.466C98.571 53.352 98.0968 53.2916 97.5998 53.2916Z" fill="#3E3E3E"/>
<path d="M111.716 54.8413C111.716 55.17 111.632 55.4718 111.456 55.7335C111.28 56.0018 111.051 56.2366 110.753 56.4244C110.455 56.619 110.11 56.7733 109.705 56.8806C109.3 56.9879 108.872 57.0416 108.413 57.0416H106.455V58.9535H105.331V52.6342H107.809C108.382 52.6342 108.91 52.6879 109.384 52.7885C109.866 52.8958 110.279 53.0434 110.623 53.2312C110.967 53.4191 111.242 53.6539 111.433 53.9222C111.625 54.1972 111.724 54.4991 111.724 54.8345L111.716 54.8413ZM110.592 54.8413C110.592 54.6132 110.516 54.4119 110.37 54.2308C110.225 54.0564 110.034 53.9021 109.789 53.7746C109.545 53.6472 109.262 53.5532 108.94 53.4794C108.619 53.4124 108.275 53.3788 107.923 53.3788H106.463V56.297H108.42C108.757 56.297 109.063 56.2567 109.33 56.1829C109.598 56.1024 109.828 56.0018 110.011 55.8676C110.202 55.7402 110.348 55.5859 110.447 55.4048C110.554 55.2303 110.6 55.0358 110.6 54.8345L110.592 54.8413Z" fill="#3E3E3E"/>
<path d="M114.531 58.9602V52.6409H115.616L119.516 57.9137L123.386 52.6409H124.426V58.9602H123.302L123.332 54.4588L119.998 58.9602H119.027L115.662 54.4186V58.9602H114.538H114.531Z" fill="#3E3E3E"/>
<path d="M127.806 58.9602V52.6409H132.861V53.3855H128.938V55.2169H132.073V55.9615H128.938V58.2156H132.861V58.9602H127.806Z" fill="#3E3E3E"/>
<path d="M136.088 58.9602V52.6409H137.059L141.869 55.606V52.6409H142.993V58.9602H141.869V56.6391L137.212 53.7679V58.9602H136.088Z" fill="#3E3E3E"/>
<path d="M145.677 52.6409H153.561V53.3855H150.181V58.9602H149.057V53.3855H145.677V52.6409Z" fill="#3E3E3E"/>
</svg>
